<?xml version="1.0" encoding="utf-8"?>
<!-- Generator: Adobe Illustrator 16.0.0, SVG Export Plug-In . SVG Version: 6.00 Build 0)  -->
<!DOCTYPE svg PUBLIC "-//W3C//DTD SVG 1.1//EN" "http://www.w3.org/Graphics/SVG/1.1/DTD/svg11.dtd">
<svg version="1.1" id="Layer_1" xmlns="http://www.w3.org/2000/svg" xmlns:xlink="http://www.w3.org/1999/xlink" x="0px" y="0px"
	 width="32.105px" height="53px" viewBox="0 0 32.105 53" enable-background="new 0 0 32.105 53" xml:space="preserve">
<g>
	<path fill="#333333" d="M16.632,0.234C16.478,0.081,16.25,0,16.059,0c-0.232,0.006-0.431,0.081-0.584,0.234L0.234,15.476
		C0.081,15.63,0,15.827,0,16.049c0,0.222,0.081,0.419,0.233,0.571l1.386,1.384c0.301,0.303,0.782,0.333,1.113,0.001l11.52-11.561
		v45.712c0,0.441,0.416,0.844,0.873,0.844h1.958c0.397,0,0.748-0.371,0.78-0.81h-0.011V6.56l11.472,11.444
		c0.306,0.309,0.856,0.306,1.16,0.002l1.387-1.384c0.152-0.152,0.233-0.351,0.233-0.572c0-0.222-0.081-0.42-0.234-0.574
		L16.632,0.234z"/>
	<path fill="#333333" d="M31.872,16.621l-1.387,1.384c-0.304,0.304-0.854,0.307-1.16-0.002L17.853,6.56V52.19h0.011
		c-0.032,0.438-0.383,0.81-0.78,0.81h-1.958c-0.457,0-0.873-0.402-0.873-0.844V6.444L2.732,18.005
		c-0.331,0.331-0.812,0.302-1.113-0.001L0.233,16.62C0.081,16.468,0,16.271,0,16.049c0-0.222,0.081-0.419,0.234-0.573l15.24-15.242
		C15.628,0.081,15.827,0.006,16.059,0c0.19,0,0.419,0.081,0.573,0.234l15.238,15.24c0.153,0.154,0.234,0.352,0.234,0.574
		C32.105,16.271,32.024,16.469,31.872,16.621z"/>
</g>
</svg>
